<?xml version="1.0" encoding="iso-8859-1"?>
<!-- Generator: Adobe Illustrator 19.0.0, SVG Export Plug-In . SVG Version: 6.00 Build 0)  -->
<svg xmlns="http://www.w3.org/2000/svg" xmlns:xlink="http://www.w3.org/1999/xlink" version="1.1" id="Capa_1" x="0px" y="0px" viewBox="0 0 426.667 426.667" style="enable-background:new 0 0 426.667 426.667;" xml:space="preserve" width="512px" height="512px">
<g>
	<g>
		<path d="M303.573,263.68C314.732,241.455,320.367,216.866,320,192c0-58.91-47.756-106.667-106.667-106.667    S106.667,133.09,106.667,192c-0.433,24.849,5.128,49.436,16.213,71.68c-33.37,11.733-60.398,36.753-74.667,69.12l39.04,17.067    c11.402-27.15,35.996-46.503,65.067-51.2c36.073,27.129,85.74,27.129,121.813,0c29.07,4.697,53.665,24.05,65.067,51.2    l39.04-17.067C363.971,300.433,336.944,275.413,303.573,263.68z M213.333,277.333c-38.827,0-64-33.493-64-85.333    c0-35.346,28.654-64,64-64s64,28.654,64,64C277.333,242.987,251.307,277.333,213.333,277.333z" fill="#FFFFFF"/>
	</g>
</g>
<g>
	<g>
		<path d="M213.333,0C95.513,0,0,95.513,0,213.333s95.513,213.333,213.333,213.333s213.333-95.513,213.333-213.333    S331.154,0,213.333,0z M213.333,388.053c-96.495,0-174.72-78.225-174.72-174.72s78.225-174.72,174.72-174.72    c96.446,0.117,174.602,78.273,174.72,174.72C388.053,309.829,309.829,388.053,213.333,388.053z" fill="#FFFFFF"/>
	</g>
</g>
<g>
</g>
<g>
</g>
<g>
</g>
<g>
</g>
<g>
</g>
<g>
</g>
<g>
</g>
<g>
</g>
<g>
</g>
<g>
</g>
<g>
</g>
<g>
</g>
<g>
</g>
<g>
</g>
<g>
</g>
</svg>
