<?xml version="1.0" encoding="iso-8859-1"?>
<!-- Generator: Adobe Illustrator 19.0.0, SVG Export Plug-In . SVG Version: 6.00 Build 0)  -->
<svg version="1.1" id="Capa_1" xmlns="http://www.w3.org/2000/svg" xmlns:xlink="http://www.w3.org/1999/xlink" x="0px" y="0px"
	 viewBox="0 0 426.699 426.699" style="enable-background:new 0 0 426.699 426.699;" xml:space="preserve">
<g id="SVGCleanerId_0">
	<g>
		<path d="M311.056,0.016c-40.151,0.287-77.221,21.574-97.707,56.107c-20.486-34.532-57.556-55.819-97.707-56.107
			C50.686,1.184-1.053,54.738,0.016,119.696c0,114.987,213.333,306.987,213.333,306.987s213.333-192,213.333-306.987
			C427.753,54.738,376.013,1.184,311.056,0.016z M213.35,376.976c-76.8-74.453-177.067-193.067-177.067-257.28
			c-1.074-44.931,34.431-82.25,79.36-83.413c27.505,0.211,52.871,14.879,66.773,38.613l30.933,50.987l30.933-50.987
			c13.903-23.734,39.268-38.402,66.773-38.613c44.929,1.164,80.434,38.482,79.36,83.413
			C390.416,183.696,290.15,302.523,213.35,376.976z"/>
	</g>
</g>
<g>
	<g>
		<path d="M311.056,0.016c-40.151,0.287-77.221,21.574-97.707,56.107c-20.486-34.532-57.556-55.819-97.707-56.107
			C50.686,1.184-1.053,54.738,0.016,119.696c0,114.987,213.333,306.987,213.333,306.987s213.333-192,213.333-306.987
			C427.753,54.738,376.013,1.184,311.056,0.016z M213.35,376.976c-76.8-74.453-177.067-193.067-177.067-257.28
			c-1.074-44.931,34.431-82.25,79.36-83.413c27.505,0.211,52.871,14.879,66.773,38.613l30.933,50.987l30.933-50.987
			c13.903-23.734,39.268-38.402,66.773-38.613c44.929,1.164,80.434,38.482,79.36,83.413
			C390.416,183.696,290.15,302.523,213.35,376.976z"/>
	</g>
</g>
<g>
	<g>
		<path d="M124.176,128.016H86.843c14.293,69.12,126.507,170.667,126.507,170.667V248.55
			C175.803,210.576,134.63,160.23,124.176,128.016z"/>
	</g>
</g>
<g>
</g>
<g>
</g>
<g>
</g>
<g>
</g>
<g>
</g>
<g>
</g>
<g>
</g>
<g>
</g>
<g>
</g>
<g>
</g>
<g>
</g>
<g>
</g>
<g>
</g>
<g>
</g>
<g>
</g>
</svg>
