<?xml version="1.0" encoding="iso-8859-1"?>
<!-- Generator: Adobe Illustrator 19.0.0, SVG Export Plug-In . SVG Version: 6.00 Build 0)  -->
<svg xmlns="http://www.w3.org/2000/svg" xmlns:xlink="http://www.w3.org/1999/xlink" version="1.1" id="Capa_1" x="0px" y="0px" viewBox="0 0 441.6 441.6" style="enable-background:new 0 0 441.6 441.6;" xml:space="preserve" width="512px" height="512px">
<g>
	<g>
		<path d="M270.933,125.867V85.333c-46.933,0-85.333,38.4-85.333,85.333C185.6,217.6,224,256,270.933,256v-40.533    c-23.467,0-44.8-21.333-44.8-44.8S247.467,125.867,270.933,125.867z" fill="#FFFFFF"/>
	</g>
</g>
<g>
	<g>
		<path d="M270.933,0c-93.867,0-170.667,76.8-170.667,170.667c0,40.533,14.933,76.8,36.267,106.667L0,413.867L27.733,441.6    l136.533-136.533c29.867,23.467,66.133,36.267,106.667,36.267c93.867,0,170.667-76.8,170.667-170.667S364.8,0,270.933,0z     M270.933,302.933c-72.533,0-132.267-59.733-132.267-132.267S198.4,38.4,270.933,38.4S403.2,98.133,403.2,170.667    S343.467,302.933,270.933,302.933z" fill="#FFFFFF"/>
	</g>
</g>
<g>
</g>
<g>
</g>
<g>
</g>
<g>
</g>
<g>
</g>
<g>
</g>
<g>
</g>
<g>
</g>
<g>
</g>
<g>
</g>
<g>
</g>
<g>
</g>
<g>
</g>
<g>
</g>
<g>
</g>
</svg>
