<?xml version='1.0' encoding='utf-8'?>
<!DOCTYPE svg PUBLIC '-//W3C//DTD SVG 1.1//EN' 'http://www.w3.org/Graphics/SVG/1.1/DTD/svg11.dtd'>
<svg version="1.1" xmlns="http://www.w3.org/2000/svg" viewBox="0 0 512 512" xmlns:xlink="http://www.w3.org/1999/xlink" enable-background="new 0 0 512 512">
  <g>
    <path d="m480.6,53h-253.2c-11.3,0-20.4,9.1-20.4,20.4v85.7h-73.6c-5.8,0-11.4,2.5-15.3,6.9l-102,115c-3.3,3.7-5.1,8.5-5.1,13.5v96.5c0,11.3 9.1,20.4 20.4,20.4h31.2c9.9,27.8 36.4,47.7 67.6,47.7 31.2,0 57.7-19.9 67.6-47.7h29.5 93.5c9.9,27.8 36.4,47.7 67.6,47.7s57.7-19.9 67.6-47.7h24.6c11.3,0 20.4-9.1 20.4-20.4v-317.6c0-11.3-9.1-20.4-20.4-20.4zm-350.3,365.2c-17,0-30.9-13.8-30.9-30.8 0-17 13.9-30.8 30.9-30.8 17,0 30.9,13.8 30.9,30.8-0.1,17-13.9,30.8-30.9,30.8zm0-102.4c-33.7,0-62.1,23.4-69.7,54.7h-8.7v-68.4l90.7-102.3h64.4v170.7h-7c-7.7-31.3-36-54.7-69.7-54.7zm258.1,102.4c-17,0-30.9-13.8-30.9-30.8 0-17 13.9-30.8 30.9-30.8 17,0 30.9,13.8 30.9,30.8 5.68434e-14,17-13.9,30.8-30.9,30.8zm71.8-47.7h-2.1c-7.6-31.4-36-54.7-69.7-54.7s-62.1,23.4-69.7,54.7h-71v-191-85.7h212.4v276.7z"/>
  </g>
</svg>
