<?xml version="1.0" encoding="iso-8859-1"?>
<!DOCTYPE svg PUBLIC "-//W3C//DTD SVG 1.1//EN" "http://www.w3.org/Graphics/SVG/1.1/DTD/svg11.dtd">
<svg  version="1.1" id="Layer_1" xmlns="http://www.w3.org/2000/svg" xmlns:xlink="http://www.w3.org/1999/xlink" x="0px" y="0px"
	 width="512px" height="512px" viewBox="0 0 512 512" enable-background="new 0 0 512 512" xml:space="preserve"><g id="4b39c30df42af5ed8a0646b495002c61"><path d="M447.693,199.574C418.848,63.373,346.765,64.74,346.765,64.74s-57.797,0.479-124.22,46.228
		c-39.34,27.096-46.582,77.047-46.582,77.047s-8.689,65.126-3.882,130.984c4.899,67.038,23.297,134.83,23.297,134.83h-15.533
		c0,0-30.695-82.806-31.055-177.208c-0.433-113.547,42.699-161.802,42.699-161.802s18.976-21.443,46.584-34.67
		c28.659-13.731,65.993-19.264,65.993-19.264L276.891,49.33c0,0-1.305-19.32-11.646-34.666
		C249.271-9.042,226.429,3.117,226.429,3.117s-22.455,7.568-31.051,26.972c-12.134,27.358-11.65,53.914-11.65,53.914
		S125.66,128.684,80.07,225.536C29.603,332.742,66.46,396.048,66.46,396.048s9.704,42.114,31.053,26.966
		c19.076-13.535-28.769-47.361-16.5-102.611c12.944-58.317,56.132-136.238,56.132-136.238S113.708,251.362,109.972,319
		c-4.018,72.787,11.645,146.387,11.645,146.387s18.787,18.845,46.582,30.82c45.56,19.627,69.875,15.412,69.875,15.412
		s81.574-14.331,143.629-38.524c43.112-16.81,69.875-46.229,69.875-46.229v-50.082C451.577,376.782,469.55,302.771,447.693,199.574z
		 M240.102,225.564c0.303-1.9,5.854-35.071,27.38-51.777c45.188-35.089,85.08-39.544,91.901-40.057
		c11.509,1.878,33.453,19.476,49.042,71.572l-171.393,58.015C238.241,242.449,239.829,227.977,240.102,225.564z M423.526,381.958
		l-174.878,59.274c-4.54-24.698-9.695-57.903-11.805-90.514c-0.981-15.145-1.294-30.296-1.208-44.566l181.908-61.571
		C428.544,306.107,426.337,355.475,423.526,381.958z"></path></g></svg>