<?xml version="1.0" encoding="iso-8859-1"?>
<!-- Generator: Adobe Illustrator 19.0.0, SVG Export Plug-In . SVG Version: 6.00 Build 0)  -->
<svg xmlns="http://www.w3.org/2000/svg" xmlns:xlink="http://www.w3.org/1999/xlink" version="1.1" id="Layer_1" x="0px" y="0px" viewBox="0 0 502 502" style="enable-background:new 0 0 502 502;" xml:space="preserve" width="512px" height="512px">
<g>
	<g>
		<g>
			<path d="M259.087,4.118C257.205,1.531,254.199,0,251,0c-3.199,0-6.205,1.531-8.087,4.118     c-6.801,9.351-166.584,230.084-166.584,323.211C76.329,423.643,154.686,502,251,502s174.671-78.357,174.671-174.671     C425.671,234.201,265.889,13.469,259.087,4.118z M251,482c-85.286,0-154.671-69.385-154.672-154.671     c0-35.343,27.947-100.17,80.819-187.473C206.925,90.687,237.009,47.078,251,27.23c13.977,19.827,44.015,63.367,73.782,112.511     c52.918,87.362,80.889,152.229,80.889,187.588C405.671,412.615,336.286,482,251,482z" fill="#FFFFFF"/>
			<path d="M361.847,384.671c-4.599-3.056-10.806-1.805-13.863,2.795c-22.582,33.986-60.39,54.276-101.135,54.276     c-5.523,0-10,4.477-10,10s4.477,10,10,10c47.459,0,91.494-23.629,117.793-63.208     C367.698,393.935,366.447,387.728,361.847,384.671z" fill="#FFFFFF"/>
			<path d="M378.18,310.41c-5.523,0-10,4.477-10,10c0,9.235-1.04,18.436-3.092,27.346c-1.239,5.382,2.119,10.75,7.501,11.989     c0.755,0.174,1.51,0.257,2.253,0.257c4.554,0,8.671-3.131,9.736-7.758c2.39-10.38,3.602-21.09,3.602-31.834     C388.18,314.887,383.703,310.41,378.18,310.41z" fill="#FFFFFF"/>
			<path d="M295,407v-44.5h44.5c5.523,0,10-4.477,10-10v-68c0-5.523-4.477-10-10-10H295V230c0-5.523-4.477-10-10-10h-68     c-5.523,0-10,4.477-10,10v44.5h-44.5c-5.523,0-10,4.477-10,10v68c0,5.523,4.477,10,10,10H207V407c0,5.523,4.477,10,10,10h68     C290.523,417,295,412.523,295,407z M275,352.5V397h-48v-44.5c0-5.523-4.477-10-10-10h-44.5v-48H217c5.523,0,10-4.477,10-10V240     h48v44.5c0,5.523,4.477,10,10,10h44.5v48H285C279.477,342.5,275,346.977,275,352.5z" fill="#FFFFFF"/>
		</g>
	</g>
</g>
<g>
</g>
<g>
</g>
<g>
</g>
<g>
</g>
<g>
</g>
<g>
</g>
<g>
</g>
<g>
</g>
<g>
</g>
<g>
</g>
<g>
</g>
<g>
</g>
<g>
</g>
<g>
</g>
<g>
</g>
</svg>
