<?xml version="1.0" encoding="iso-8859-1"?>
<!-- Generator: Adobe Illustrator 16.0.0, SVG Export Plug-In . SVG Version: 6.00 Build 0)  -->
<!DOCTYPE svg PUBLIC "-//W3C//DTD SVG 1.1//EN" "http://www.w3.org/Graphics/SVG/1.1/DTD/svg11.dtd">
<svg version="1.1" id="Capa_1" xmlns="http://www.w3.org/2000/svg" xmlns:xlink="http://www.w3.org/1999/xlink" x="0px" y="0px"
	 width="65.506px" height="65.506px" viewBox="0 0 65.506 65.506" style="enable-background:new 0 0 65.506 65.506;"
	 xml:space="preserve">
<g>
	<g id="_x32_8_1_">
		<g>
			<path d="M32.791,5.68C14.709,5.68,0,15.51,0,27.589c0,11.286,12.475,20.608,29.078,21.78l14.21,10.227
				c0.214,0.154,0.466,0.23,0.718,0.23c0.191,0,0.385-0.045,0.562-0.135c0.41-0.212,0.666-0.635,0.666-1.097V47.746
				C57.583,44.41,65.506,36.57,65.506,27.589C65.505,15.51,50.829,5.68,32.791,5.68z M43.711,45.598
				c-0.548,0.135-0.934,0.63-0.934,1.193v9.404l-12.55-9.031c-0.188-0.135-0.41-0.213-0.641-0.229
				C14.12,45.957,2.456,37.64,2.456,27.588c0-10.724,13.608-19.447,30.334-19.447c16.685,0,30.256,8.724,30.256,19.447
				C63.047,35.623,55.459,42.693,43.711,45.598z"/>
		</g>
	</g>
</g>
<g>
</g>
<g>
</g>
<g>
</g>
<g>
</g>
<g>
</g>
<g>
</g>
<g>
</g>
<g>
</g>
<g>
</g>
<g>
</g>
<g>
</g>
<g>
</g>
<g>
</g>
<g>
</g>
<g>
</g>
</svg>
