<?xml version="1.0" encoding="iso-8859-1"?>
<!-- Generator: Adobe Illustrator 19.1.0, SVG Export Plug-In . SVG Version: 6.00 Build 0)  -->
<svg version="1.1" id="Capa_1" xmlns="http://www.w3.org/2000/svg" xmlns:xlink="http://www.w3.org/1999/xlink" x="0px" y="0px"
	 viewBox="0 0 161.819 161.819" style="enable-background:new 0 0 161.819 161.819;" xml:space="preserve">
<g>
	<path d="M80.942,152.164c-0.005,0-0.011,0-0.017,0c-4.689-0.051-6.494-2.452-8.24-4.773c-1.087-1.445-2.211-2.94-4.187-4.104
		c-6.128-3.612-6.059-9.275-6.025-11.996l0.002-0.175c0.005-0.448,0.059-0.9,0.116-1.379c0.29-2.428,0.777-6.492-5.453-16.749
		c-6.232-10.263-5.386-21.353-4.697-25.795c-6.515,0.304-26.879,0.127-32.124-13.348c-0.22-0.565-0.078-1.208,0.36-1.627
		c0.077-0.074,1.93-1.827,5.005-2.809c2.832-0.904,7.294-1.325,12.47,1.809c0.031,0.019,0.061,0.038,0.09,0.059
		c0.169,0.12,4.178,2.969,7.02,5.983c0.869,0.919,1.615,1.931,2.337,2.909c1.536,2.081,2.862,3.878,4.693,3.897
		c0.18,0.002,0.352,0.036,0.511,0.095c0.816-0.042,1.293-0.085,1.328-0.088c0.485-0.045,0.961,0.144,1.278,0.511
		c0.318,0.367,0.439,0.867,0.324,1.339c-0.033,0.135-3.222,13.664,3.97,25.506c6.768,11.143,6.204,15.85,5.867,18.663
		c-0.047,0.391-0.092,0.735-0.095,1.054l-0.002,0.18c-0.03,2.485-0.081,6.646,4.549,9.375c2.491,1.468,3.856,3.283,5.061,4.885
		c1.604,2.132,2.663,3.542,5.876,3.576c0.828,0.009,1.492,0.688,1.483,1.516C82.433,151.503,81.763,152.164,80.942,152.164z
		 M23.55,73.756c3.998,8.167,15.656,10.083,23.368,10.419c-0.609-0.7-1.174-1.465-1.733-2.223c-0.669-0.906-1.361-1.844-2.105-2.632
		c-2.486-2.637-6.098-5.255-6.529-5.564C30.257,69.973,25.398,72.462,23.55,73.756z"/>
	<path d="M55.591,77.658c-1.977,0-4.693-1.049-9.051-4.654c-6.704-5.544-11.048-6.232-11.091-6.238
		c-4.718-0.628-8.164-0.002-10.247,1.861c-2.051,1.835-2.057,4.34-2.057,4.365c0.018,0.829-0.64,1.514-1.468,1.531
		c-0.815,0.034-1.514-0.64-1.531-1.468c-0.003-0.158-0.046-3.891,3.056-6.665c2.765-2.472,7.021-3.346,12.649-2.598
		c0.203,0.026,5.14,0.729,12.6,6.899c5.766,4.77,7.505,4.029,8.248,3.712l0.073-0.03c0.099-0.083,0.25-0.248,0.272-0.386
		c0.022-0.135-0.082-0.367-0.28-0.621c-1.353-1.747-2.604-3.335-2.921-3.736c-0.759-0.733-1.109-2.004-0.349-3.167
		c0.417-0.64,0.956-0.95,1.564-0.906c0.742-0.779,1.999-2.263,2.872-3.312c-0.288-0.783,0.053-1.731,0.854-2.368
		c0.423-0.337,1.975-1.32,4.144,0.146l5.276,3.67c0.298,0.13,0.811,0.26,1.067,0.176c0.055-0.021,0.1-0.052,0.152-0.082
		c0.964-0.54,2.285-1.279,11.462-1.307c0.002,0,0.004,0,0.005,0c0.826,0,1.497,0.668,1.5,1.495c0.003,0.829-0.667,1.502-1.495,1.505
		c-8.4,0.026-9.526,0.656-10.007,0.925c-0.177,0.099-0.397,0.223-0.698,0.319c-1.558,0.5-3.127-0.242-3.427-0.395
		c-0.059-0.031-0.116-0.065-0.171-0.103l-5.312-3.696c-0.012,0.075-0.024,0.135-0.035,0.177c-0.053,0.216-0.153,0.418-0.295,0.59
		c-0.116,0.143-2.873,3.511-4.04,4.652c-0.082,0.081-0.193,0.189-0.331,0.303c0.549,0.697,1.523,1.939,2.556,3.271
		c0.945,1.216,0.989,2.309,0.859,3.011c-0.283,1.533-1.573,2.353-1.72,2.441c-0.074,0.045-0.152,0.083-0.233,0.115l-0.165,0.069
		C57.208,77.449,56.473,77.658,55.591,77.658z"/>
	<path d="M57.151,103.203c-0.017,0-0.034,0-0.051,0c-1.264-0.014-2.444-0.519-3.327-1.422c-0.881-0.902-1.358-2.092-1.343-3.352
		c0.013-1.257,0.516-2.437,1.416-3.319c0.902-0.883,2.11-1.348,3.356-1.348c2.6,0.027,4.694,2.167,4.669,4.769c0,0,0,0.001,0,0.002
		C61.843,101.118,59.73,103.203,57.151,103.203z M57.151,96.762c-0.454,0-0.881,0.174-1.205,0.492
		c-0.328,0.321-0.511,0.75-0.516,1.208c-0.006,0.461,0.168,0.894,0.488,1.222c0.322,0.33,0.753,0.514,1.214,0.519
		c0.943,0.03,1.729-0.753,1.739-1.701l0,0c0.01-0.949-0.754-1.729-1.701-1.739C57.164,96.762,57.158,96.762,57.151,96.762z"/>
	<path d="M64.653,104.427c-0.607,0-1.18-0.373-1.405-0.976c-2.316-6.203-6.041-6.678-6.199-6.695
		c-0.813-0.089-1.419-0.815-1.344-1.631c0.076-0.815,0.772-1.422,1.596-1.358c0.232,0.018,5.73,0.527,8.758,8.634
		c0.29,0.776-0.104,1.64-0.881,1.93C65.004,104.396,64.828,104.427,64.653,104.427z"/>
	<path d="M80.24,146.755c-1.148,0-2.199-0.458-3.438-2.298c-0.321-0.478-0.82-0.84-1.398-1.261
		c-1.242-0.904-2.945-2.143-3.258-5.165c-0.194-1.888,0.468-3.075,1.058-3.738c1.367-1.538,3.443-1.613,3.676-1.616l4.09,0.044
		c0.828,0.009,1.492,0.688,1.483,1.516c-0.009,0.823-0.679,1.484-1.5,1.484c-0.005,0-0.011,0-0.017,0l-4.051-0.044
		c-0.223,0.009-1.03,0.14-1.447,0.618c-0.101,0.115-0.406,0.466-0.308,1.428c0.175,1.69,0.916,2.23,2.039,3.046
		c0.705,0.513,1.504,1.094,2.121,2.011c0.58,0.861,0.877,0.976,0.88,0.977c0.028,0.005,0.129-0.004,0.203-0.008
		c0.128-0.009,0.245-0.017,0.368-0.015c0.828,0.006,1.495,0.683,1.488,1.512c-0.007,0.828-0.672,1.482-1.512,1.488
		c-0.045-0.002-0.091,0.004-0.139,0.008C80.464,146.751,80.352,146.755,80.24,146.755z"/>
	<path d="M78.865,141.255c-0.354,0-0.71-0.125-0.996-0.379l-1.646-1.465c-0.619-0.551-0.674-1.499-0.123-2.118
		c0.55-0.618,1.498-0.674,2.117-0.124l1.646,1.465c0.619,0.551,0.674,1.499,0.123,2.118
		C79.69,141.085,79.279,141.255,78.865,141.255z"/>
	<path d="M80.891,152.164c-0.821,0-1.491-0.661-1.5-1.484c-0.009-0.828,0.655-1.507,1.483-1.516
		c3.215-0.035,4.274-1.444,5.878-3.577c1.204-1.602,2.57-3.417,5.061-4.885c4.63-2.73,4.579-6.891,4.549-9.377l-0.002-0.176
		c-0.003-0.32-0.048-0.665-0.095-1.055c-0.337-2.813-0.9-7.521,5.867-18.663c7.214-11.879,4.004-25.369,3.971-25.504
		c-0.117-0.473,0.003-0.972,0.321-1.34c0.319-0.369,0.797-0.559,1.28-0.512c0.034,0.003,0.512,0.046,1.328,0.088
		c0.159-0.06,0.331-0.093,0.51-0.095c1.83-0.02,3.157-1.817,4.693-3.899c0.722-0.978,1.468-1.988,2.336-2.908
		c2.843-3.014,6.852-5.863,7.021-5.982c0.028-0.021,0.059-0.041,0.089-0.059c5.175-3.132,9.638-2.712,12.469-1.809
		c3.074,0.982,4.927,2.734,5.005,2.809c0.438,0.419,0.58,1.062,0.359,1.627c-5.243,13.474-25.606,13.65-32.121,13.348
		c0.689,4.442,1.535,15.531-4.697,25.795c-6.23,10.257-5.743,14.321-5.453,16.749c0.058,0.479,0.111,0.931,0.116,1.38l0.002,0.171
		c0.033,2.722,0.102,8.385-6.025,11.998c-1.976,1.165-3.1,2.659-4.187,4.104c-1.746,2.322-3.551,4.722-8.242,4.773
		C80.902,152.164,80.896,152.164,80.891,152.164z M125.284,73.756c-0.431,0.309-4.043,2.927-6.53,5.563
		c-0.744,0.789-1.436,1.725-2.104,2.63c-0.56,0.759-1.126,1.525-1.734,2.226c7.711-0.336,19.37-2.252,23.367-10.42
		C136.44,72.465,131.58,69.972,125.284,73.756z"/>
	<path d="M106.244,77.658c-0.883,0-1.617-0.209-2.285-0.494l-0.165-0.069c-0.081-0.032-0.159-0.07-0.234-0.115
		c-0.146-0.089-1.435-0.909-1.718-2.441c-0.13-0.702-0.087-1.794,0.859-3.012c1.031-1.332,2.006-2.573,2.555-3.271
		c-0.138-0.113-0.249-0.222-0.331-0.302c-1.167-1.141-3.924-4.509-4.04-4.652c-0.141-0.171-0.24-0.371-0.294-0.586
		c-0.011-0.042-0.024-0.104-0.036-0.18l-5.312,3.694c-0.055,0.038-0.112,0.072-0.171,0.103c-0.301,0.153-1.87,0.895-3.428,0.396
		c-0.302-0.097-0.522-0.221-0.7-0.32c-0.481-0.27-1.61-0.901-10.056-0.925c-0.829-0.002-1.498-0.676-1.496-1.504
		c0.002-0.827,0.674-1.496,1.5-1.496c0.001,0,0.003,0,0.004,0c9.224,0.025,10.547,0.766,11.514,1.307
		c0.053,0.03,0.097,0.061,0.152,0.082c0.256,0.081,0.764-0.045,1.072-0.178l5.259-3.657c2.183-1.479,3.734-0.494,4.157-0.159
		c0.802,0.636,1.143,1.585,0.854,2.369c0.873,1.05,2.131,2.534,2.872,3.312c0.628-0.048,1.147,0.265,1.566,0.906
		c0.758,1.164,0.407,2.434-0.351,3.166c-0.317,0.401-1.569,1.99-2.921,3.734c-0.2,0.258-0.305,0.493-0.28,0.628
		c0.028,0.148,0.19,0.309,0.274,0.382l0.07,0.029c0.741,0.316,2.482,1.055,8.247-3.712c7.461-6.17,12.397-6.873,12.604-6.9
		c5.624-0.749,9.881,0.126,12.645,2.598c3.102,2.774,3.06,6.507,3.057,6.665c-0.018,0.828-0.712,1.505-1.531,1.468
		c-0.825-0.017-1.48-0.698-1.469-1.521c0.001-0.127-0.02-2.581-2.092-4.407c-2.088-1.838-5.524-2.453-10.218-1.829
		c-0.036,0.005-4.38,0.693-11.084,6.237C110.937,76.609,108.22,77.658,106.244,77.658z"/>
	<path d="M104.684,103.203c-2.58,0-4.692-2.084-4.721-4.67l0,0c-0.014-1.261,0.465-2.451,1.348-3.353s2.063-1.405,3.324-1.418
		c0.018,0,0.035,0,0.053,0c2.575,0,4.688,2.083,4.719,4.667c0.025,2.605-2.069,4.745-4.671,4.773
		C104.718,103.203,104.702,103.203,104.684,103.203z M104.686,96.762c-0.006,0-0.013,0-0.019,0
		c-0.461,0.005-0.892,0.188-1.213,0.517c-0.322,0.328-0.496,0.762-0.491,1.22l0,0c0.011,0.95,0.812,1.718,1.74,1.703
		c0.948-0.01,1.713-0.791,1.703-1.741C106.395,97.522,105.625,96.762,104.686,96.762z"/>
	<path d="M97.182,104.427c-0.175,0-0.352-0.031-0.524-0.095c-0.776-0.29-1.171-1.154-0.881-1.93c3.027-8.107,8.527-8.617,8.76-8.634
		c0.812-0.06,1.547,0.554,1.61,1.382c0.062,0.819-0.546,1.535-1.362,1.608c-0.199,0.022-3.896,0.529-6.197,6.694
		C98.362,104.054,97.79,104.427,97.182,104.427z"/>
	<path d="M81.646,146.756c-0.113,0-0.227-0.005-0.338-0.013c-0.048-0.003-0.094-0.002-0.138-0.007
		c-0.87-0.02-1.505-0.66-1.512-1.488c-0.007-0.828,0.66-1.505,1.488-1.512c0.104-0.002,0.24,0.006,0.367,0.015
		c0.075,0.005,0.178,0.012,0.207,0.007c-0.001,0,0.297-0.114,0.877-0.976c0.617-0.917,1.416-1.498,2.12-2.011
		c1.122-0.817,1.863-1.356,2.04-3.049c0.1-0.968-0.214-1.319-0.316-1.435c-0.435-0.489-1.289-0.606-1.478-0.609l-4.012,0.044
		c-0.006,0-0.012,0-0.017,0c-0.821,0-1.491-0.661-1.5-1.484c-0.009-0.828,0.655-1.507,1.483-1.516l4.051-0.044
		c0.271,0.003,2.347,0.078,3.714,1.615c0.589,0.663,1.252,1.85,1.059,3.737c-0.316,3.023-2.017,4.262-3.259,5.166
		c-0.577,0.42-1.075,0.783-1.397,1.261C83.791,146.381,82.668,146.756,81.646,146.756z"/>
	<path d="M83.025,141.255c-0.413,0-0.824-0.169-1.121-0.502c-0.551-0.619-0.496-1.567,0.122-2.118l1.645-1.465
		c0.619-0.551,1.566-0.496,2.118,0.122c0.551,0.619,0.496,1.567-0.122,2.118l-1.645,1.465
		C83.736,141.13,83.379,141.255,83.025,141.255z"/>
	<path d="M55.667,68.084c-0.265,0-0.532-0.069-0.774-0.216C23.126,48.674,4.479,33.155,0.967,22.99
		c-1.937-5.599-0.603-8.88,0.856-10.647C3.462,10.36,6.096,9.364,8.69,9.734c2.463,0.355,4.343,1.796,5.027,3.853
		c0.568,1.709,0.157,3.535-1.073,4.766c-0.597,0.598,0.191,3.403,1.242,5.327c0.022,0.041,0.043,0.083,0.062,0.126
		c1.137,2.645,4.356,6.193,7.132,8.944c-0.304-2.207-0.027-4.298,0.874-5.93c1.001-1.815,2.711-2.854,4.696-2.854
		c0.01,0,0.02,0,0.03,0c4.665,0.023,5.979,4.254,6.021,6.488c-0.239,6.627,2.764,11.776,5.691,15.187
		c-0.066-1.133,0.124-2.216,0.583-3.202c0.925-1.991,2.858-3.228,4.936-3.15c3.753,0.135,5.171,3.956,5.417,6.192
		c0.69,9.076,10.673,15.685,10.774,15.75c0.694,0.452,0.89,1.382,0.438,2.076c-0.453,0.694-1.382,0.89-2.076,0.437
		C58,63.443,47.137,56.245,46.34,45.759l0,0c-0.001,0-0.43-3.396-2.539-3.471c-0.894-0.047-1.686,0.511-2.107,1.417
		c-0.854,1.836,0.012,4.45,2.316,6.991c0.504,0.555,0.52,1.396,0.039,1.971c-0.481,0.574-1.312,0.706-1.947,0.307
		c-0.528-0.332-12.918-8.277-12.401-22.544c-0.018-0.5-0.248-3.449-3.038-3.463c-0.004,0-0.009,0-0.014,0
		c-0.896,0-1.592,0.438-2.069,1.303c-0.987,1.79-0.98,5.391,1.367,9.071c0.4,0.626,0.28,1.451-0.281,1.939s-1.394,0.49-1.959,0.007
		c-0.41-0.351-10.031-8.624-12.488-14.23c-0.631-1.17-3.187-6.332-0.698-8.824c0.429-0.429,0.56-1.064,0.349-1.698
		c-0.318-0.957-1.293-1.641-2.609-1.831c-1.542-0.226-3.164,0.386-4.126,1.55c-1.371,1.66-1.49,4.415-0.334,7.757
		c1.873,5.42,11.202,18.25,52.642,43.291c0.709,0.428,0.937,1.351,0.509,2.06C56.67,67.826,56.175,68.084,55.667,68.084z"/>
	<path d="M106.15,68.084c-0.508,0-1.003-0.258-1.285-0.724c-0.428-0.709-0.2-1.631,0.509-2.06
		c41.439-25.041,50.771-37.871,52.645-43.291c1.155-3.341,1.036-6.095-0.336-7.755c-0.962-1.165-2.587-1.778-4.13-1.551
		c-1.312,0.189-2.287,0.873-2.604,1.829c-0.211,0.634-0.081,1.27,0.348,1.699c2.49,2.493-0.067,7.654-0.699,8.825
		c-2.458,5.607-12.078,13.88-12.487,14.23c-0.565,0.482-1.398,0.481-1.96-0.007c-0.561-0.488-0.68-1.313-0.28-1.939
		c2.349-3.678,2.355-7.28,1.368-9.07c-0.479-0.87-1.17-1.306-2.082-1.303c-0.305,0.001-2.974,0.114-3.039,3.546
		c0.519,14.184-11.874,22.13-12.401,22.461c-0.637,0.399-1.467,0.267-1.947-0.307c-0.481-0.575-0.465-1.416,0.038-1.971
		c2.305-2.541,3.171-5.154,2.316-6.991c-0.421-0.906-1.201-1.457-2.105-1.417c-2.114,0.076-2.541,3.493-2.545,3.527
		c-0.791,10.431-11.652,17.629-12.114,17.93c-0.694,0.454-1.621,0.257-2.074-0.436c-0.453-0.693-0.258-1.623,0.435-2.076
		c0.101-0.066,10.084-6.703,10.768-15.701c0.252-2.287,1.67-6.106,5.423-6.242c2.09-0.086,4.009,1.161,4.935,3.15
		c0.457,0.984,0.647,2.063,0.583,3.194c2.928-3.407,5.931-8.537,5.691-15.095c0.042-2.317,1.356-6.548,6.022-6.572
		c0.01,0,0.021,0,0.03,0c1.983,0,3.693,1.039,4.694,2.854c0.9,1.631,1.178,3.722,0.874,5.928c2.775-2.751,5.993-6.298,7.131-8.943
		c0.019-0.042,0.039-0.085,0.061-0.125c1.071-1.968,1.848-4.725,1.244-5.329c-1.229-1.231-1.642-3.057-1.072-4.767
		c0.684-2.056,2.562-3.496,5.023-3.851c2.595-0.378,5.231,0.625,6.871,2.61c1.459,1.767,2.793,5.048,0.858,10.646
		c-3.515,10.164-22.163,25.683-53.93,44.877C106.682,68.014,106.415,68.084,106.15,68.084z"/>
</g>
<g>
</g>
<g>
</g>
<g>
</g>
<g>
</g>
<g>
</g>
<g>
</g>
<g>
</g>
<g>
</g>
<g>
</g>
<g>
</g>
<g>
</g>
<g>
</g>
<g>
</g>
<g>
</g>
<g>
</g>
</svg>
