<?xml version="1.0" encoding="iso-8859-1"?>
<!-- Generator: Adobe Illustrator 19.0.0, SVG Export Plug-In . SVG Version: 6.00 Build 0)  -->
<svg version="1.1" id="Layer_1" xmlns="http://www.w3.org/2000/svg" xmlns:xlink="http://www.w3.org/1999/xlink" x="0px" y="0px"
	 viewBox="0 0 512 512" style="enable-background:new 0 0 512 512;" xml:space="preserve">
<circle style="fill:#4DE1FF;" cx="256" cy="256" r="247.83"/>
<path style="fill:#0C8FAA;" d="M47.152,307.745C70.393,401.491,155.214,471.149,256,471.149s185.607-69.658,208.848-163.404
	L256,285.957L47.152,307.745z"/>
<polygon style="fill:#7FB21E;" points="464.752,307.745 358.876,124.363 252.857,307.745 "/>
<polygon style="fill:#9FC657;" points="345.869,307.745 252.899,146.715 196.621,71.026 140.234,146.773 47.172,307.745 "/>
<path style="fill:#FFFFFF;" d="M196.52,49.239l-56.305,97.523L168.38,167.6l28.136-20.818l28.14,20.818l28.168-20.838
	C221.644,92.755,196.52,49.239,196.52,49.239z"/>
<circle style="fill:#FF984C;" cx="300.435" cy="79.022" r="32.681"/>
<g>
	<path style="fill:#03242B;" d="M300.433,119.876c22.526,0,40.851-18.325,40.851-40.851s-18.325-40.851-40.851-40.851
		c-22.526,0-40.851,18.325-40.851,40.851S277.907,119.876,300.433,119.876z M300.433,54.514c13.515,0,24.511,10.995,24.511,24.511
		s-10.996,24.511-24.511,24.511c-13.515,0-24.511-10.995-24.511-24.511S286.918,54.514,300.433,54.514z"/>
	<path style="fill:#03242B;" d="M437.019,74.981C388.667,26.628,324.38,0,256,0S123.333,26.628,74.981,74.981
		C26.628,123.332,0,187.62,0,256s26.628,132.668,74.981,181.019C123.333,485.372,187.62,512,256,512s132.667-26.628,181.019-74.981
		C485.372,388.668,512,324.38,512,256S485.372,123.332,437.019,74.981z M256,495.66c-132.149,0-239.66-107.51-239.66-239.66
		S123.851,16.34,256,16.34S495.66,123.851,495.66,256S388.149,495.66,256,495.66z"/>
	<circle style="fill:#03242B;" cx="196.586" cy="244.769" r="8.17"/>
	<circle style="fill:#03242B;" cx="168.448" cy="211.118" r="8.17"/>
	<path style="fill:#03242B;" d="M314.158,201.643c3.908,2.256,8.904,0.916,11.16-2.99l33.463-57.959l80.07,138.461
		c1.514,2.619,4.258,4.082,7.08,4.082c1.388,0,2.794-0.354,4.083-1.099c3.905-2.259,5.242-7.257,2.982-11.163l-87.148-150.701
		c-1.46-2.525-4.155-4.081-7.072-4.081c-2.922,0.001-5.617,1.558-7.075,4.085l-40.533,70.205
		C308.91,194.39,310.25,199.387,314.158,201.643z"/>
	<path style="fill:#03242B;" d="M425.896,340.426c0-4.512-3.657-8.17-8.17-8.17H192.318c-4.513,0-8.17,3.658-8.17,8.17
		c0,4.512,3.657,8.17,8.17,8.17h225.407C422.239,348.596,425.896,344.938,425.896,340.426z"/>
	<path style="fill:#03242B;" d="M167.807,340.426c0-4.512-3.657-8.17-8.17-8.17H94.276c-4.513,0-8.17,3.658-8.17,8.17
		c0,4.512,3.657,8.17,8.17,8.17h65.362C164.15,348.596,167.807,344.938,167.807,340.426z"/>
	<path style="fill:#03242B;" d="M116.183,381.277H307.91c4.513,0,8.17-3.658,8.17-8.17c0-4.512-3.657-8.17-8.17-8.17H116.183
		c-4.513,0-8.17,3.658-8.17,8.17C108.012,377.618,111.67,381.277,116.183,381.277z"/>
	<path style="fill:#03242B;" d="M230.441,397.617c-4.513,0-8.17,3.658-8.17,8.17c0,4.512,3.657,8.17,8.17,8.17h129.634
		c4.513,0,8.17-3.658,8.17-8.17c0-4.512-3.657-8.17-8.17-8.17H230.441z"/>
	<path style="fill:#03242B;" d="M471.283,302.71c-1.549-1.979-3.923-3.135-6.435-3.135H47.152c-2.513,0-4.886,1.157-6.435,3.136
		c-1.549,1.979-2.1,4.562-1.495,7.001c12.683,51.131,43.356,96.394,86.367,127.45c3.658,2.64,8.764,1.817,11.408-1.841
		c2.642-3.658,1.817-8.765-1.841-11.407c-37.015-26.726-64.171-64.783-77.28-107.999h396.259
		C427.852,403.02,347.83,462.979,256,462.979c-33.076,0-64.714-7.619-94.03-22.643c-4.019-2.059-8.94-0.472-10.998,3.544
		c-2.058,4.016-0.471,8.939,3.545,10.997c31.646,16.22,65.79,24.443,101.484,24.443c50.831,0,98.752-16.708,138.582-48.318
		c38.636-30.662,66.406-73.738,78.195-121.291C473.383,307.271,472.831,304.69,471.283,302.71z"/>
	<path style="fill:#03242B;" d="M61.956,282.137c3.906,2.256,8.904,0.924,11.163-2.984l69.64-120.456l20.835,15.416
		c2.887,2.136,6.831,2.136,9.719,0l23.276-17.223l23.282,17.223c1.443,1.068,3.152,1.602,4.859,1.602s3.415-0.534,4.859-1.602
		l20.793-15.382l69.526,120.423c1.513,2.621,4.259,4.086,7.083,4.086c1.386,0,2.792-0.353,4.077-1.096
		c3.908-2.256,5.246-7.253,2.99-11.161l-130.38-225.83c-1.459-2.527-4.155-4.084-7.073-4.085c-2.919,0-5.615,1.556-7.075,4.081
		L58.973,270.974C56.714,274.881,58.05,279.879,61.956,282.137z M196.597,65.571l45.563,78.917l-17.429,12.894l-23.282-17.223
		c-2.887-2.136-6.831-2.136-9.718,0l-23.276,17.223l-17.464-12.921L196.597,65.571z"/>
</g>
<g>
</g>
<g>
</g>
<g>
</g>
<g>
</g>
<g>
</g>
<g>
</g>
<g>
</g>
<g>
</g>
<g>
</g>
<g>
</g>
<g>
</g>
<g>
</g>
<g>
</g>
<g>
</g>
<g>
</g>
</svg>
