<?xml version="1.0" encoding="iso-8859-1"?>
<!-- Generator: Adobe Illustrator 19.0.0, SVG Export Plug-In . SVG Version: 6.00 Build 0)  -->
<svg xmlns="http://www.w3.org/2000/svg" xmlns:xlink="http://www.w3.org/1999/xlink" version="1.1" id="Capa_1" x="0px" y="0px" viewBox="0 0 512 512" style="enable-background:new 0 0 512 512;" xml:space="preserve" width="512px" height="512px">
<g>
	<g>
		<path d="M451.997,180.7c-33.09,0-59.998,26.908-59.998,59.998s26.908,59.998,59.998,59.998c33.09,0,59.999-26.908,59.999-59.998    S485.088,180.7,451.997,180.7z" fill="#522546"/>
	</g>
</g>
<g>
	<g>
		<path d="M376.999,60.703c-24.813,0-44.999,20.185-44.999,44.999c0,24.813,20.185,44.999,44.999,44.999    c24.813,0,44.999-20.185,44.999-44.999C421.998,80.888,401.813,60.703,376.999,60.703z" fill="#522546"/>
	</g>
</g>
<g>
	<g>
		<path d="M511.542,493.059l-29.999-120.997c-0.894-3.618-3.12-6.782-6.226-8.848l-77.664-51.772l-41.161,63.255    c-18.052,27.805-60.161,27.157-77.302-1.377l-40.912-68.186c-5.825-9.719-19.409-9.483-25.341-0.601l-7.969,11.938    c-17.342,25.998-57.631,27.56-75.569-1.055l-35.734-57L1.064,491.184c-3.888,9.798,3.361,20.508,13.945,20.508h481.988    C506.763,511.691,513.915,502.49,511.542,493.059z" fill="#522546"/>
	</g>
</g>
<g>
	<g>
		<path d="M267.852,29.205c-6.738-17.475-23.187-28.798-41.922-28.827c-19.731-1.113-35.199,11.191-41.981,28.607l-76.587,194.779    l47.467,75.716c5.605,8.945,18.941,9.772,25.18,0.352l7.969-11.953c18.364-27.562,59.142-26.363,76.023,1.816l41.912,68.186    c5.859,9.765,19.543,9.5,25.429,0.469l48.273-74.169L267.852,29.205z" fill="#522546"/>
	</g>
</g>
<g>
</g>
<g>
</g>
<g>
</g>
<g>
</g>
<g>
</g>
<g>
</g>
<g>
</g>
<g>
</g>
<g>
</g>
<g>
</g>
<g>
</g>
<g>
</g>
<g>
</g>
<g>
</g>
<g>
</g>
</svg>
