<?xml version="1.0" encoding="iso-8859-1"?>
<!-- Generator: Adobe Illustrator 19.0.0, SVG Export Plug-In . SVG Version: 6.00 Build 0)  -->
<svg version="1.1" id="Layer_1" xmlns="http://www.w3.org/2000/svg" xmlns:xlink="http://www.w3.org/1999/xlink" x="0px" y="0px"
	 viewBox="0 0 512.004 512.004" style="enable-background:new 0 0 512.004 512.004;" xml:space="preserve">
<g>
	<g>
		<path d="M376.831,213.336h39.254c7.048,0.11,13.877-2.451,19.115-7.168c5.367-4.627,8.478-11.345,8.533-18.432
			c-0.011-2.92-0.56-5.813-1.621-8.533h45.311c6.607,0.004,12.916-2.748,17.407-7.595c4.64-4.841,7.211-11.3,7.169-18.005
			c0.255-13.845-10.732-25.289-24.576-25.6H382.976c-6.607-0.005-12.917,2.748-17.407,7.595c-4.64,4.841-7.211,11.3-7.169,18.005
			c0.01,2.898,0.47,5.777,1.365,8.533h-12.202l-41.301-72.277l-0.171-0.256c-1.122-1.968-3.004-3.388-5.205-3.925
			c-0.716-0.232-1.466-0.347-2.219-0.341c-1.494-0.007-2.965,0.375-4.267,1.109c-0.92,0.526-1.708,1.256-2.304,2.133
			c-0.325,0.249-0.588,0.571-0.768,0.939c-0.046,0.046-0.076,0.106-0.085,0.171l-60.501,101.973l-54.101,91.392l-29.184-32.427
			l-0.341-0.341c-0.451-0.519-0.967-0.978-1.535-1.365c-0.427-0.256-0.94-0.512-1.365-0.768c-0.5-0.182-1.014-0.324-1.536-0.427
			c-1.14-0.325-2.344-0.355-3.498-0.085c-0.47,0.091-0.928,0.234-1.365,0.427c-0.506,0.176-0.993,0.405-1.451,0.683
			c-0.446,0.285-0.874,0.598-1.279,0.939c-0.485,0.371-0.892,0.835-1.196,1.365l-0.171,0.171L1.451,447.49
			c-0.938,1.418-1.443,3.078-1.451,4.779v34.133c0.014,4.707,3.826,8.52,8.533,8.533h494.933c4.707-0.014,8.52-3.826,8.533-8.533
			v-34.133c-0.024-1.49-0.404-2.953-1.109-4.267L376.831,213.336z M382.976,179.202c4.713,0,8.533-3.82,8.533-8.533
			s-3.82-8.533-8.533-8.533c-4.395-0.353-7.718-4.129-7.509-8.533c-0.025-2.379,0.932-4.664,2.646-6.315
			c1.206-1.432,2.992-2.246,4.863-2.219h104.448c4.395,0.353,7.718,4.129,7.509,8.533c0.025,2.379-0.932,4.664-2.646,6.315
			c-1.206,1.432-2.992,2.246-4.864,2.219h-71.339c-4.713,0-8.533,3.82-8.533,8.533s3.82,8.533,8.533,8.533
			c5.234-0.418,9.881,3.33,10.581,8.533c-0.063,2.268-1.125,4.392-2.902,5.803c-2.122,1.85-4.866,2.826-7.679,2.731h-49.067
			l-9.728-17.067H382.976z M248.405,195.415l17.835,29.781l26.368-26.453c1.805-1.727,4.248-2.624,6.741-2.475
			c2.501,0.224,4.778,1.534,6.229,3.584l35.156,49.152l18.774-31.403l9.728,16.981l-20.565,34.304
			c-1.477,2.485-4.109,4.058-6.997,4.181h-0.341c-2.748-0.006-5.324-1.341-6.913-3.584l-36.864-51.541l-26.965,27.051
			c-1.855,1.865-4.478,2.749-7.083,2.389c-2.64-0.274-4.988-1.797-6.315-4.096l-18.688-31.147L248.405,195.415z M382.379,457.304
			c-1.611,2.206-4.181,3.506-6.913,3.499c-1.809,0.013-3.574-0.555-5.035-1.621l-89.685-65.195l-46.507,23.211
			c-2.823,1.454-6.225,1.19-8.789-0.683l-54.185-38.656L91.051,450.05c-1.568,1.417-3.604,2.207-5.717,2.219
			c-4.712-0.011-8.523-3.84-8.512-8.552c0.006-2.398,1.02-4.684,2.796-6.296l85.333-76.8c2.952-2.733,7.428-2.983,10.667-0.597
			l55.552,39.68l46.592-23.296c2.852-1.458,6.28-1.194,8.875,0.683l93.867,68.267C384.306,448.146,385.144,453.482,382.379,457.304z
			"/>
	</g>
</g>
<g>
	<g>
		<path d="M222.891,17.069H118.443c-6.607-0.005-12.917,2.748-17.407,7.595c-4.64,4.841-7.211,11.3-7.169,18.005
			c0.01,2.898,0.47,5.777,1.365,8.533H27.648c-5.009,0.012-9.937,1.273-14.335,3.669c-1.713,0.992-3.315,2.165-4.779,3.499
			C3.166,62.998,0.056,69.716,0,76.802c0.606,14.686,12.959,26.124,27.648,25.6h123.904c7.048,0.11,13.877-2.451,19.115-7.168
			c5.367-4.627,8.478-11.345,8.533-18.432c-0.011-2.92-0.56-5.813-1.621-8.533h45.312c6.607,0.004,12.916-2.748,17.407-7.595
			c4.64-4.841,7.211-11.3,7.169-18.005C247.721,28.824,236.734,17.379,222.891,17.069z M227.754,48.983
			c-1.206,1.432-2.992,2.246-4.863,2.219h-71.339c-4.713,0-8.533,3.82-8.533,8.533s3.82,8.533,8.533,8.533
			c5.234-0.418,9.881,3.33,10.581,8.533c-0.063,2.268-1.125,4.392-2.902,5.803c-2.122,1.85-4.866,2.826-7.679,2.731H27.648
			c-5.234,0.418-9.881-3.33-10.581-8.533c0.051-2.228,1.081-4.32,2.817-5.717h0c0.571-0.489,1.169-0.944,1.792-1.365
			c1.848-0.949,3.896-1.446,5.973-1.451h90.794c4.713,0,8.533-3.82,8.533-8.533s-3.82-8.533-8.533-8.533
			c-4.395-0.353-7.718-4.129-7.509-8.533c-0.025-2.379,0.932-4.664,2.646-6.315c1.206-1.432,2.992-2.246,4.864-2.219h104.448
			c4.395,0.353,7.718,4.129,7.509,8.533C230.425,45.048,229.468,47.332,227.754,48.983z"/>
	</g>
</g>
<g>
</g>
<g>
</g>
<g>
</g>
<g>
</g>
<g>
</g>
<g>
</g>
<g>
</g>
<g>
</g>
<g>
</g>
<g>
</g>
<g>
</g>
<g>
</g>
<g>
</g>
<g>
</g>
<g>
</g>
</svg>
