<?xml version="1.0" encoding="iso-8859-1"?>
<!-- Generator: Adobe Illustrator 19.0.0, SVG Export Plug-In . SVG Version: 6.00 Build 0)  -->
<svg version="1.1" id="Layer_1" xmlns="http://www.w3.org/2000/svg" xmlns:xlink="http://www.w3.org/1999/xlink" x="0px" y="0px"
	 viewBox="0 0 512 512" style="enable-background:new 0 0 512 512;" xml:space="preserve">
<g>
	<g>
		<g>
			<path d="M508.876,141.791L391.543,24.461c-0.044-0.044-0.092-0.08-0.137-0.123c-0.207-0.202-0.42-0.398-0.644-0.581
				c-0.13-0.108-0.267-0.201-0.401-0.301c-0.146-0.109-0.288-0.22-0.437-0.321c-0.153-0.102-0.311-0.191-0.467-0.285
				c-0.143-0.085-0.283-0.175-0.43-0.254c-0.155-0.082-0.314-0.153-0.471-0.227c-0.157-0.075-0.314-0.154-0.475-0.221
				c-0.15-0.062-0.302-0.111-0.454-0.165c-0.177-0.065-0.352-0.132-0.533-0.187c-0.148-0.045-0.297-0.077-0.446-0.114
				c-0.189-0.049-0.374-0.101-0.566-0.139c-0.165-0.033-0.335-0.052-0.501-0.077c-0.177-0.026-0.352-0.059-0.531-0.076
				c-0.285-0.028-0.571-0.038-0.858-0.044c-0.064-0.001-0.125-0.01-0.19-0.01h-68.075l-7.651-15.306
				c-0.018-0.035-0.035-0.069-0.053-0.106l-0.015-0.029c-0.005-0.012-0.014-0.02-0.019-0.032c-0.201-0.396-0.429-0.775-0.678-1.147
				c-0.045-0.067-0.09-0.133-0.135-0.199c-0.515-0.731-1.128-1.403-1.833-1.997c-0.075-0.064-0.153-0.123-0.229-0.185
				c-0.275-0.219-0.563-0.425-0.865-0.619c-0.093-0.061-0.182-0.123-0.276-0.179c-0.059-0.035-0.111-0.076-0.171-0.111
				c-0.332-0.192-0.669-0.361-1.01-0.512c-0.014-0.006-0.027-0.011-0.041-0.016c-0.4-0.176-0.806-0.319-1.217-0.442
				c-0.096-0.029-0.192-0.054-0.289-0.08c-0.385-0.106-0.773-0.189-1.163-0.249c-0.055-0.009-0.109-0.022-0.165-0.029
				c-0.453-0.063-0.908-0.093-1.361-0.096c-0.03,0-0.06-0.006-0.09-0.006h-85.331c-0.031,0-0.061,0.006-0.092,0.006
				c-0.451,0.004-0.902,0.033-1.353,0.095c-0.064,0.01-0.126,0.025-0.19,0.033c-0.379,0.06-0.755,0.141-1.13,0.241
				c-0.107,0.029-0.211,0.057-0.316,0.089c-0.39,0.117-0.778,0.254-1.159,0.42c-0.031,0.015-0.064,0.023-0.095,0.037
				c-0.338,0.151-0.672,0.319-1,0.508c-0.055,0.032-0.105,0.07-0.158,0.102c-0.107,0.065-0.209,0.135-0.314,0.204
				c-0.285,0.185-0.556,0.379-0.817,0.586c-0.09,0.071-0.18,0.141-0.268,0.214c-0.691,0.585-1.293,1.245-1.801,1.963
				c-0.059,0.081-0.113,0.164-0.17,0.247c-0.228,0.342-0.438,0.693-0.625,1.057c-0.017,0.032-0.038,0.062-0.055,0.094l-0.042,0.084
				c-0.003,0.005-0.005,0.01-0.007,0.015l-7.671,15.342h-68.07c-0.156,0-0.307,0.017-0.462,0.023
				c-0.193,0.008-0.385,0.011-0.578,0.029c-0.209,0.021-0.414,0.058-0.62,0.09c-0.138,0.022-0.276,0.036-0.413,0.064
				c-0.21,0.041-0.414,0.097-0.619,0.151c-0.132,0.033-0.265,0.062-0.395,0.101c-0.194,0.059-0.382,0.13-0.571,0.201
				c-0.14,0.05-0.281,0.096-0.417,0.153c-0.174,0.071-0.339,0.156-0.509,0.236c-0.147,0.07-0.295,0.135-0.442,0.212
				c-0.158,0.085-0.308,0.181-0.463,0.274c-0.145,0.086-0.291,0.169-0.434,0.263c-0.165,0.112-0.322,0.235-0.481,0.354
				c-0.12,0.09-0.243,0.172-0.358,0.268c-0.266,0.218-0.522,0.449-0.766,0.691c-0.005,0.005-0.012,0.011-0.017,0.016L3.124,141.794
				c-4.164,4.165-4.165,10.919,0,15.086l70.422,70.425c2.083,2.082,4.813,3.124,7.542,3.124c0.001,0,0.001,0,0.001,0s0,0,0.001,0
				c2.731,0,5.459-1.042,7.542-3.124l28.7-28.7L117.334,416c0,2.829,1.124,5.541,3.124,7.542c2.001,2,4.714,3.124,7.542,3.124
				h128.001h127.999c5.89,0,10.667-4.777,10.667-10.667V198.603l28.69,28.688c0.003,0.003,0.006,0.007,0.01,0.011
				c0.467,0.468,0.973,0.875,1.499,1.238c1.814,1.252,3.927,1.886,6.044,1.886c1.013,0,2.026-0.145,3.006-0.432
				c0.011-0.002,0.021-0.004,0.031-0.007c0.498-0.148,0.983-0.345,1.46-0.566c0.155-0.07,0.311-0.134,0.463-0.214
				c0.015-0.007,0.028-0.017,0.042-0.025c0.913-0.485,1.771-1.11,2.541-1.879l70.422-70.425
				C513.041,152.71,513.041,145.956,508.876,141.791z M280.193,21.333l-24.192,41.902L231.81,21.333H280.193z M297.969,33.214
				l-14.683,54.791l-12.714-7.341L297.969,33.214z M241.43,80.665l-12.714,7.342l-14.685-54.8L241.43,80.665z M266.669,405.333
				v-30.64v-18.276l48.915,48.916H266.669z M330.67,390.247l-48.915-48.915h48.915V390.247z M430.909,204.674l-39.363-39.359
				c-0.249-0.249-0.511-0.485-0.783-0.709c-0.13-0.107-0.268-0.198-0.401-0.299c-0.145-0.109-0.286-0.22-0.435-0.321
				c-0.162-0.109-0.332-0.203-0.498-0.302c-0.131-0.078-0.259-0.16-0.394-0.234c-0.173-0.092-0.35-0.171-0.526-0.253
				c-0.14-0.066-0.276-0.135-0.419-0.195c-0.173-0.07-0.348-0.129-0.523-0.191c-0.155-0.055-0.306-0.114-0.464-0.162
				c-0.177-0.053-0.357-0.094-0.536-0.138c-0.158-0.039-0.314-0.084-0.475-0.116c-0.211-0.042-0.423-0.068-0.638-0.097
				c-0.132-0.018-0.261-0.044-0.395-0.058c-0.704-0.069-1.412-0.069-2.116,0c-0.138,0.014-0.27,0.041-0.406,0.06
				c-0.208,0.028-0.418,0.054-0.625,0.095c-0.166,0.033-0.329,0.08-0.493,0.121c-0.173,0.043-0.347,0.081-0.518,0.133
				c-0.163,0.049-0.321,0.112-0.481,0.169c-0.167,0.06-0.337,0.115-0.503,0.183c-0.15,0.063-0.294,0.137-0.442,0.205
				c-0.169,0.079-0.338,0.155-0.503,0.242c-0.142,0.076-0.277,0.163-0.416,0.245c-0.159,0.095-0.322,0.186-0.478,0.29
				c-0.156,0.105-0.304,0.221-0.454,0.335c-0.128,0.095-0.258,0.183-0.382,0.286c-0.544,0.447-1.043,0.946-1.49,1.489
				c-0.099,0.119-0.185,0.246-0.277,0.37c-0.115,0.156-0.236,0.307-0.344,0.467c-0.101,0.153-0.189,0.309-0.282,0.465
				c-0.085,0.143-0.176,0.283-0.254,0.43c-0.085,0.159-0.158,0.324-0.236,0.487c-0.071,0.153-0.148,0.302-0.212,0.458
				c-0.065,0.159-0.118,0.322-0.176,0.482c-0.061,0.167-0.124,0.333-0.176,0.503c-0.049,0.162-0.085,0.328-0.126,0.492
				c-0.044,0.173-0.093,0.343-0.127,0.519c-0.038,0.193-0.062,0.386-0.089,0.58c-0.022,0.151-0.051,0.299-0.065,0.452
				c-0.034,0.351-0.053,0.703-0.053,1.056v232.477h-21.331v-74.668c0-5.89-4.777-10.667-10.667-10.667h-74.668v-51.972
				c0-5.891-4.776-10.667-10.667-10.667c-5.89,0-10.667,4.776-10.667,10.667v62.639v44.028v30.64H138.668l0.001-158.374
				c0-0.005,0.001-0.01,0.001-0.014v-74.092c0-0.003,0-0.007,0-0.011v-32.564c0-5.89-4.777-10.667-10.667-10.667
				c-5.892,0-10.667,4.777-10.667,10.667v28.151l-36.244,36.244l-55.339-55.341L132.419,42.67h62.063l17.226,64.286
				c0.026,0.099,0.062,0.193,0.091,0.289c0.046,0.154,0.091,0.305,0.144,0.457c0.076,0.221,0.162,0.434,0.252,0.646
				c0.035,0.082,0.065,0.165,0.101,0.246c0.145,0.32,0.303,0.628,0.475,0.928c0.001,0.002,0.002,0.003,0.003,0.005
				c0.002,0.004,0.005,0.008,0.009,0.013c0.226,0.39,0.478,0.76,0.748,1.115c0.032,0.043,0.063,0.085,0.095,0.127
				c0.257,0.329,0.534,0.638,0.827,0.931c0.067,0.067,0.137,0.132,0.205,0.198c0.292,0.278,0.593,0.545,0.913,0.786
				c0.043,0.032,0.09,0.061,0.133,0.093c0.289,0.212,0.591,0.407,0.9,0.589c0.087,0.052,0.173,0.105,0.261,0.154
				c0.344,0.189,0.697,0.359,1.059,0.511c0.069,0.028,0.138,0.053,0.207,0.08c0.361,0.142,0.73,0.266,1.105,0.368
				c0.029,0.007,0.058,0.018,0.086,0.025c0.403,0.106,0.816,0.183,1.232,0.241c0.067,0.01,0.133,0.018,0.201,0.025
				c0.413,0.05,0.829,0.083,1.25,0.083c0.005,0,0.011-0.001,0.017-0.001c0.926,0,1.857-0.125,2.773-0.373
				c0.397-0.108,0.779-0.241,1.152-0.387c0.11-0.044,0.216-0.095,0.325-0.143c0.313-0.137,0.615-0.286,0.91-0.448
				c0.054-0.029,0.111-0.049,0.163-0.08l17.99-10.387v88.19c0,5.891,4.776,10.667,10.667,10.667c5.89,0,10.667-4.776,10.667-10.667
				v-88.19l17.987,10.386c0.057,0.032,0.114,0.053,0.171,0.084c0.291,0.16,0.59,0.307,0.898,0.442
				c0.111,0.048,0.22,0.101,0.332,0.145c0.372,0.147,0.753,0.279,1.148,0.386c0.915,0.247,1.849,0.374,2.777,0.374
				c0.006,0,0.012,0.001,0.017,0.001c0.421,0,0.837-0.033,1.251-0.083c0.066-0.008,0.132-0.016,0.199-0.025
				c0.417-0.058,0.828-0.135,1.232-0.241c0.029-0.007,0.058-0.018,0.085-0.025c0.378-0.102,0.746-0.227,1.107-0.369
				c0.068-0.027,0.138-0.051,0.205-0.079c0.363-0.151,0.716-0.322,1.059-0.511c0.09-0.048,0.175-0.101,0.262-0.153
				c0.307-0.181,0.606-0.374,0.894-0.586c0.048-0.034,0.099-0.067,0.147-0.102c0.315-0.24,0.611-0.502,0.9-0.775
				c0.071-0.068,0.144-0.137,0.214-0.207c0.289-0.29,0.562-0.597,0.818-0.921c0.037-0.047,0.071-0.097,0.107-0.145
				c0.262-0.343,0.508-0.704,0.729-1.084c0.006-0.011,0.015-0.02,0.021-0.031c0.003-0.004,0.004-0.01,0.007-0.015
				c0.17-0.294,0.326-0.599,0.468-0.913c0.042-0.092,0.075-0.185,0.113-0.276c0.085-0.204,0.169-0.409,0.242-0.62
				c0.054-0.155,0.1-0.31,0.146-0.466c0.029-0.096,0.064-0.188,0.09-0.285l17.226-64.286h55.812v27.22
				c0,5.89,4.776,10.667,10.667,10.667s10.667-4.777,10.667-10.667V57.756l91.58,91.578L430.909,204.674z"/>
			<path d="M362.669,490.667l-213.333-0.004c-5.89,0-10.667,4.777-10.667,10.667s4.776,10.667,10.667,10.667L362.669,512
				c5.89,0,10.667-4.776,10.667-10.667S368.56,490.667,362.669,490.667z"/>
			<path d="M256.002,215.762c-5.89,0-10.667,4.777-10.667,10.667v6.402c0,5.891,4.777,10.667,10.667,10.667
				c5.89,0,10.667-4.776,10.667-10.667v-6.402C266.669,220.539,261.892,215.762,256.002,215.762z"/>
			<path d="M128.003,88.021c-5.892,0-10.667,4.776-10.667,10.667v6.398c0,5.89,4.774,10.667,10.667,10.667
				c5.89,0,10.667-4.777,10.667-10.667v-6.398C138.67,92.797,133.893,88.021,128.003,88.021z"/>
			<path d="M384.001,94.419c-5.89,0-10.667,4.777-10.667,10.667v6.401c0,5.89,4.775,10.667,10.667,10.667
				c5.89,0,10.667-4.777,10.667-10.667v-6.401C394.668,99.196,389.891,94.419,384.001,94.419z"/>
		</g>
	</g>
</g>
<g>
</g>
<g>
</g>
<g>
</g>
<g>
</g>
<g>
</g>
<g>
</g>
<g>
</g>
<g>
</g>
<g>
</g>
<g>
</g>
<g>
</g>
<g>
</g>
<g>
</g>
<g>
</g>
<g>
</g>
</svg>
