<?xml version="1.0" encoding="iso-8859-1"?>
<!-- Generator: Adobe Illustrator 19.0.0, SVG Export Plug-In . SVG Version: 6.00 Build 0)  -->
<svg xmlns="http://www.w3.org/2000/svg" xmlns:xlink="http://www.w3.org/1999/xlink" version="1.1" id="Capa_1" x="0px" y="0px" viewBox="0 0 469.333 469.333" style="enable-background:new 0 0 469.333 469.333;" xml:space="preserve" width="512px" height="512px">
<g>
	<g>
		<rect x="192" y="341.333" width="85.333" height="42.667" fill="#FFFFFF"/>
	</g>
</g>
<g>
	<g>
		<path d="M445.867,317.867c-8.533-51.2-49.067-89.6-98.133-102.4c10.667-21.333,14.933-44.8,14.933-66.133c0-70.4-57.6-128-128-128    s-128,57.6-128,128c0,21.333,4.267,44.8,14.933,68.267C72.533,228.267,34.133,268.8,23.467,320L0,448h469.333L445.867,317.867z     M234.667,64C281.6,64,320,102.4,320,151.467c0,61.867-51.2,130.133-85.333,130.133c-36.267,0-87.467-68.267-87.467-130.133    C147.2,102.4,187.733,64,234.667,64z M51.2,405.333L66.133,326.4c6.4-38.4,38.4-66.133,76.8-68.267    c23.467,36.267,55.467,64,93.867,64s70.4-27.733,93.867-64c38.4,4.267,68.267,32,76.8,68.267l14.933,78.933H51.2z" fill="#FFFFFF"/>
	</g>
</g>
<g>
</g>
<g>
</g>
<g>
</g>
<g>
</g>
<g>
</g>
<g>
</g>
<g>
</g>
<g>
</g>
<g>
</g>
<g>
</g>
<g>
</g>
<g>
</g>
<g>
</g>
<g>
</g>
<g>
</g>
</svg>
