<?xml version="1.0" encoding="iso-8859-1"?>
<!-- Generator: Adobe Illustrator 19.0.0, SVG Export Plug-In . SVG Version: 6.00 Build 0)  -->
<svg version="1.1" id="Capa_1" xmlns="http://www.w3.org/2000/svg" xmlns:xlink="http://www.w3.org/1999/xlink" x="0px" y="0px"
	 viewBox="0 0 512 512" style="enable-background:new 0 0 512 512;" xml:space="preserve">
<g>
	<g>
		<path d="M256,0C115.39,0,0,115.39,0,256s115.39,256,256,256s256-115.39,256-256S396.61,0,256,0z M256,91c24.814,0,45,20.186,45,45
			c0,24.814-20.186,45-45,45c-24.814,0-45-20.186-45-45C211,111.186,231.186,91,256,91z M256,482C131.928,482,30,380.072,30,256
			c0-83.139,46.438-155.709,113.67-194.661C129.395,82.746,121,108.395,121,136c0,74.443,60.557,135,135,135
			c57.891,0,105,47.109,105,105S313.891,482,256,482z"/>
	</g>
</g>
<g>
	<g>
		<path d="M256,331c-24.814,0-45,20.186-45,45c0,24.814,20.186,45,45,45c24.814,0,45-20.186,45-45C301,351.186,280.814,331,256,331z
			"/>
	</g>
</g>
<g>
</g>
<g>
</g>
<g>
</g>
<g>
</g>
<g>
</g>
<g>
</g>
<g>
</g>
<g>
</g>
<g>
</g>
<g>
</g>
<g>
</g>
<g>
</g>
<g>
</g>
<g>
</g>
<g>
</g>
</svg>
